<?xml version="1.0" encoding="iso-8859-1"?>
<!-- Generator: Adobe Illustrator 18.0.0, SVG Export Plug-In . SVG Version: 6.00 Build 0)  -->
<!DOCTYPE svg PUBLIC "-//W3C//DTD SVG 1.1//EN" "http://www.w3.org/Graphics/SVG/1.1/DTD/svg11.dtd">
<svg version="1.1" id="Capa_1" xmlns="http://www.w3.org/2000/svg" xmlns:xlink="http://www.w3.org/1999/xlink" x="0px" y="0px"
	 viewBox="0 0 447.685 447.685" style="enable-background:new 0 0 447.685 447.685;" xml:space="preserve">
<g>
	<path style="fill:#71D36E;" d="M367.36,202.539v78.84c-1.12-0.23-2.28-0.34-3.46-0.34c-6.94,0-12.96,3.95-15.94,9.72
		c-0.19-0.12-0.39-0.24-0.6-0.34v-87.88c0-30.19-12.24-57.51-32.02-77.29s-47.1-32.02-77.29-32.02
		c-60.37,0-109.31,48.94-109.31,109.31v3.11c-1.23-0.15-2.48-0.23-3.74-0.23c-1.17,0-2.32,0.06-3.46,0.2
		c-4.42,0.48-8.56,1.91-12.22,4.08c-0.19,0.11-0.39,0.23-0.58,0.36v-7.52c0-71.3,58.01-129.31,129.31-129.31
		S367.36,131.239,367.36,202.539z"/>
	<path style="fill:#FCD983;" d="M387.36,202.539v85.53c-1.37-0.74-2.93-1.15-4.59-1.15c-1.67,0-3.25,0.42-4.62,1.16
		c-2.61-3.41-6.41-5.85-10.79-6.7v-78.84c0-71.3-58.01-129.31-129.31-129.31s-129.31,58.01-129.31,129.31v7.52
		c-3.61,2.21-6.74,5.17-9.17,8.64c-0.78-0.71-1.61-1.38-2.47-2c-2.51-1.84-5.33-3.3-8.36-4.3v-9.86
		c0-82.33,66.98-149.31,149.31-149.31S387.36,120.209,387.36,202.539z"/>
	<path style="fill:#EA535E;" d="M407.36,202.539v88.15c-0.05-0.01-0.11-0.01-0.16-0.01c-0.63,0-1.23,0.11-1.8,0.29
		c-1.8-2.98-5.07-4.98-8.81-4.98c-2.95,0-5.62,1.25-7.49,3.25c-0.54-0.46-1.12-0.85-1.74-1.17v-85.53
		c0-82.33-66.98-149.31-149.31-149.31s-149.31,66.98-149.31,149.31v9.86c-1.25-0.41-2.54-0.74-3.86-0.99
		c-1.77-0.33-3.61-0.5-5.48-0.5c-2.31,0-4.57,0.25-6.73,0.77c-1.35,0.3-2.66,0.7-3.93,1.18v-10.32
		c0-93.36,75.95-169.31,169.31-169.31S407.36,109.179,407.36,202.539z"/>
	<path style="fill:#6BC0DD;" d="M128.74,217.649c1.72,0.2,3.4,0.55,5.02,1.03c12.87,3.77,22.26,15.68,22.26,29.76
		c0,3.52-0.61,6.88-1.68,10.04c21.7,3.05,38.4,21.7,38.4,44.24H0c2.21-15.68,13.71-28.36,28.76-32.27
		c-0.29-1.44-0.44-2.92-0.44-4.45c0-11.51,8.72-20.99,19.91-22.21c0.8-0.09,1.61-0.14,2.44-0.14c0.04,0,0.07,0.02,0.11,0.02
		c1.82-5.58,5.22-10.43,9.67-14.03c2.47-2.01,5.26-3.64,8.29-4.78c1.27-0.48,2.58-0.88,3.93-1.18c2.16-0.52,4.42-0.77,6.73-0.77
		c1.87,0,3.71,0.17,5.48,0.5c1.32,0.25,2.61,0.58,3.86,0.99c3.03,1,5.85,2.46,8.36,4.3c0.86,0.62,1.69,1.29,2.47,2
		c2.43-3.47,5.56-6.43,9.17-8.64c0.19-0.13,0.39-0.25,0.58-0.36c3.66-2.17,7.8-3.6,12.22-4.08c1.14-0.14,2.29-0.2,3.46-0.2
		C126.26,217.419,127.51,217.499,128.74,217.649z"/>
	<path style="fill:#F9BF4B;" d="M420.778,272.319c-0.07-0.014-0.154-0.014-0.224-0.014c-0.882,0-1.722,0.154-2.52,0.406
		c-2.52-4.171-7.097-6.971-12.332-6.971c-4.13,0-7.867,1.75-10.485,4.549c-0.756-0.644-1.568-1.19-2.436-1.638
		c-1.918-1.036-4.102-1.61-6.425-1.61c-2.337,0-4.549,0.588-6.467,1.624c-3.654-4.773-8.973-8.189-15.104-9.379
		c-1.568-0.322-3.192-0.476-4.843-0.476c-9.715,0-18.142,5.529-22.313,13.606c-0.266-0.168-0.546-0.336-0.84-0.476
		c-1.694-0.896-3.612-1.4-5.655-1.4c-6.775,0-12.262,5.501-12.262,12.276c0,6.775,5.487,12.262,12.262,12.262
		c2.044,0,3.961-0.504,5.655-1.386c3.808,9.029,12.738,15.37,23.153,15.37c1.652,0,3.276-0.154,4.843-0.462
		c8.147-1.596,14.88-7.125,18.156-14.53c1.092,0.28,2.24,0.434,3.416,0.434c2.324,0,4.508-0.588,6.425-1.61
		c1.148-0.602,2.198-1.372,3.122-2.254c2.562,2.394,6.005,3.864,9.799,3.864c4.983,0,9.379-2.548,11.954-6.397
		c0.91,0.336,1.876,0.532,2.898,0.532c0.07,0,0.154,0,0.224-0.014c4.409-0.112,7.937-3.71,7.937-8.147
		C428.715,276.043,425.187,272.431,420.778,272.319z"/>
	<path style="fill:#808080;" d="M442.069,346.188c0,4.269-0.392,8.455-1.148,12.514c-0.77,4.157-1.918,8.175-3.402,12.038
		c-1.82,4.689-4.129,9.127-6.873,13.256c-3.402,5.095-7.461,9.715-12.066,13.718c-11.982,10.429-27.646,16.742-44.78,16.742
		c-16.49,0-31.608-5.837-43.408-15.566c-4.717-3.892-8.889-8.399-12.416-13.41c-3.206-4.535-5.865-9.477-7.895-14.74
		c-1.484-3.863-2.632-7.881-3.402-12.038c-0.756-4.059-1.148-8.245-1.148-12.514c0-13.158,3.724-25.449,10.177-35.877h11.576
		c-4.521,7.727-7.097,16.672-7.097,26.233c0,3.304,0.308,6.523,0.896,9.659c0.616,3.22,1.512,6.327,2.688,9.309
		c1.582,4.059,3.682,7.881,6.187,11.395c2.772,3.863,6.061,7.349,9.757,10.345c9.267,7.517,21.137,12.038,34.086,12.038
		c13.452,0,25.757-4.885,35.163-12.934c3.612-3.094,6.803-6.663,9.477-10.597c0-0.014,0-0.014,0-0.014
		c2.156-3.178,3.975-6.607,5.389-10.233c1.176-2.982,2.072-6.089,2.674-9.309c0.588-3.136,0.896-6.355,0.896-9.659
		c0-9.561-2.576-18.506-7.097-26.233h11.576C438.346,320.739,442.069,333.029,442.069,346.188z"/>
	<path style="fill:#808080;" d="M431.878,310.31h-11.576c-0.294-0.504-0.588-0.994-0.896-1.484c-1.106-1.764-2.31-3.458-3.612-5.081
		h11.479C428.939,305.845,430.479,308.029,431.878,310.31z"/>
	<path style="fill:#808080;" d="M414.857,285.688c-1.918-1.918-4.549-3.094-7.475-3.094h5.249h13.998h1.862
		c2.926,0,5.571,1.176,7.489,3.094c1.904,1.918,3.094,4.563,3.094,7.489c0,5.837-4.731,10.569-10.583,10.569h-1.218h-11.479h-8.413
		c5.837,0,10.569-4.731,10.569-10.569C417.95,290.251,416.774,287.605,414.857,285.688z"/>
	<path style="fill:#999999;" d="M427.399,336.543c0,3.304-0.308,6.523-0.896,9.659c-0.602,3.22-1.498,6.327-2.674,9.309
		c-1.414,3.626-3.234,7.055-5.389,10.233c0,0,0,0,0,0.014c-2.674,3.934-5.865,7.503-9.477,10.597
		c-9.407,8.049-21.711,12.934-35.163,12.934c-12.948,0-24.819-4.521-34.086-12.038c-3.695-2.996-6.985-6.481-9.757-10.345
		c-2.506-3.514-4.605-7.335-6.187-11.395c-1.176-2.982-2.072-6.089-2.688-9.309c-0.588-3.136-0.896-6.355-0.896-9.659
		c0-9.561,2.576-18.506,7.097-26.233h93.018C424.823,318.037,427.399,326.982,427.399,336.543z"/>
	<path style="fill:#808080;" d="M419.406,308.826c0.308,0.49,0.602,0.98,0.896,1.484h-93.018c0.294-0.504,0.588-0.994,0.896-1.484
		c1.106-1.764,2.324-3.458,3.626-5.081h8.413h67.163h8.413C417.096,305.369,418.3,307.063,419.406,308.826z"/>
	<path style="fill:#999999;" d="M398.633,282.594h8.749c2.926,0,5.557,1.176,7.475,3.094s3.094,4.563,3.094,7.489
		c0,5.837-4.731,10.569-10.569,10.569h-67.163c-2.926,0-5.571-1.19-7.489-3.094c-1.904-1.918-3.094-4.563-3.094-7.475
		c0-5.851,4.731-10.583,10.583-10.583h2.422h13.998h13.998h13.998H398.633z"/>
	<path style="fill:#808080;" d="M328.642,282.594h11.576c-5.851,0-10.583,4.731-10.583,10.583c0,2.912,1.19,5.557,3.094,7.475
		c1.918,1.904,4.563,3.094,7.489,3.094h-8.413h-11.492h-1.218c-2.912,0-5.571-1.19-7.475-3.094
		c-1.918-1.918-3.108-4.563-3.108-7.475c0-5.851,4.745-10.583,10.583-10.583H328.642z"/>
	<path style="fill:#808080;" d="M320.313,303.745h11.492c-1.302,1.624-2.52,3.318-3.626,5.081c-0.308,0.49-0.602,0.98-0.896,1.484
		h-11.576C317.107,308.029,318.661,305.845,320.313,303.745z"/>
	<path style="fill:#F7DA92;" d="M416.764,250.904c-0.644,0-1.294-0.177-1.876-0.548c-1.631-1.038-2.111-3.201-1.074-4.832
		l20.999-32.998c1.038-1.632,3.204-2.11,4.832-1.074c1.631,1.038,2.111,3.201,1.074,4.832l-20.999,32.998
		C419.054,250.331,417.921,250.904,416.764,250.904z"/>
	<path style="fill:#F7DA92;" d="M425.517,262.373c-1.479,0-2.854-0.946-3.331-2.43c-0.592-1.84,0.421-3.812,2.261-4.403l18.666-6
		c1.838-0.592,3.811,0.42,4.403,2.261c0.592,1.84-0.421,3.812-2.261,4.403l-18.666,6
		C426.233,262.318,425.873,262.373,425.517,262.373z"/>
	<path style="fill:#F7DA92;" d="M333.07,261.063c-0.525,0-1.06-0.119-1.563-0.37l-17.333-8.666c-1.729-0.865-2.43-2.967-1.565-4.696
		c0.864-1.728,2.965-2.431,4.696-1.565l17.333,8.666c1.729,0.865,2.43,2.967,1.565,4.696
		C335.591,260.354,334.354,261.063,333.07,261.063z"/>
	<path style="fill:#F7DA92;" d="M339.743,247.729c-1.048,0-2.085-0.469-2.774-1.363l-18-23.333
		c-1.181-1.531-0.896-3.729,0.634-4.909c1.53-1.181,3.729-0.897,4.909,0.634l18,23.333c1.181,1.531,0.896,3.729-0.634,4.909
		C341.241,247.491,340.489,247.729,339.743,247.729z"/>
</g>
<g>
</g>
<g>
</g>
<g>
</g>
<g>
</g>
<g>
</g>
<g>
</g>
<g>
</g>
<g>
</g>
<g>
</g>
<g>
</g>
<g>
</g>
<g>
</g>
<g>
</g>
<g>
</g>
<g>
</g>
</svg>
